<svg xmlns="http://www.w3.org/2000/svg" xmlns:xlink="http://www.w3.org/1999/xlink" width="369" zoomAndPan="magnify" viewBox="0 0 276.75 113.999999" height="152" preserveAspectRatio="xMidYMid meet" version="1.0"><defs><g/><clipPath id="a693d129a8"><path d="M 18.636719 17.421875 L 178.835938 17.421875 L 178.835938 94.804688 L 18.636719 94.804688 Z M 18.636719 17.421875 " clip-rule="nonzero"/></clipPath><clipPath id="1a7ae4faaf"><path d="M 21.925781 43.230469 C 20.046875 47.195312 18.8125 51.707031 18.8125 56.132812 C 18.8125 60.558594 19.871094 64.820312 21.75 68.746094 C 21.808594 68.828125 21.808594 68.914062 21.867188 68.996094 C 29.386719 83.738281 49.242188 94.59375 73.054688 94.804688 L 178.835938 94.804688 L 178.835938 17.421875 L 73.132812 17.421875 C 49.125 17.632812 29.269531 28.320312 21.925781 43.230469 Z M 21.925781 43.230469 " clip-rule="nonzero"/></clipPath></defs><g clip-path="url(#a693d129a8)"><g clip-path="url(#1a7ae4faaf)"><path fill="#d32025" d="M 178.835938 17.421875 L 178.835938 94.804688 L 18.9375 94.804688 L 18.9375 17.421875 Z M 178.835938 17.421875 " fill-opacity="1" fill-rule="nonzero"/></g></g><g fill="#ffffff" fill-opacity="1"><g transform="translate(27.558665, 76.84723)"><g><path d="M 25.234375 0.625 C 20.660156 0.625 16.742188 -0.296875 13.484375 -2.140625 C 10.222656 -3.992188 7.71875 -6.613281 5.96875 -10 C 4.226562 -13.382812 3.359375 -17.378906 3.359375 -21.984375 C 3.359375 -25.429688 3.859375 -28.535156 4.859375 -31.296875 C 5.859375 -34.066406 7.289062 -36.4375 9.15625 -38.40625 C 11.03125 -40.375 13.328125 -41.890625 16.046875 -42.953125 C 18.765625 -44.015625 21.828125 -44.546875 25.234375 -44.546875 C 27.515625 -44.546875 29.753906 -44.253906 31.953125 -43.671875 C 34.160156 -43.085938 36.09375 -42.253906 37.75 -41.171875 C 38.625 -40.640625 39.207031 -39.988281 39.5 -39.21875 C 39.789062 -38.445312 39.851562 -37.695312 39.6875 -36.96875 C 39.519531 -36.25 39.175781 -35.640625 38.65625 -35.140625 C 38.132812 -34.640625 37.488281 -34.359375 36.71875 -34.296875 C 35.957031 -34.234375 35.117188 -34.492188 34.203125 -35.078125 C 32.910156 -35.898438 31.515625 -36.5 30.015625 -36.875 C 28.523438 -37.25 27.015625 -37.4375 25.484375 -37.4375 C 22.535156 -37.4375 20.039062 -36.832031 18 -35.625 C 15.96875 -34.425781 14.429688 -32.679688 13.390625 -30.390625 C 12.359375 -28.109375 11.84375 -25.304688 11.84375 -21.984375 C 11.84375 -18.703125 12.359375 -15.898438 13.390625 -13.578125 C 14.429688 -11.253906 15.96875 -9.488281 18 -8.28125 C 20.039062 -7.082031 22.535156 -6.484375 25.484375 -6.484375 C 27.054688 -6.484375 28.609375 -6.675781 30.140625 -7.0625 C 31.679688 -7.457031 33.140625 -8.070312 34.515625 -8.90625 C 35.429688 -9.445312 36.25 -9.6875 36.96875 -9.625 C 37.695312 -9.5625 38.3125 -9.300781 38.8125 -8.84375 C 39.3125 -8.382812 39.644531 -7.8125 39.8125 -7.125 C 39.976562 -6.445312 39.9375 -5.742188 39.6875 -5.015625 C 39.4375 -4.285156 38.9375 -3.648438 38.1875 -3.109375 C 36.53125 -1.910156 34.546875 -0.988281 32.234375 -0.34375 C 29.929688 0.300781 27.597656 0.625 25.234375 0.625 Z M 25.234375 0.625 "/></g></g></g><g fill="#ffffff" fill-opacity="1"><g transform="translate(69.918152, 76.84723)"><g><path d="M 8.78125 0.5 C 7.5 0.5 6.515625 0.132812 5.828125 -0.59375 C 5.140625 -1.320312 4.796875 -2.328125 4.796875 -3.609375 L 4.796875 -40.3125 C 4.796875 -41.632812 5.140625 -42.648438 5.828125 -43.359375 C 6.515625 -44.066406 7.5 -44.421875 8.78125 -44.421875 C 10.070312 -44.421875 11.054688 -44.066406 11.734375 -43.359375 C 12.421875 -42.648438 12.765625 -41.632812 12.765625 -40.3125 L 12.765625 -3.609375 C 12.765625 -2.328125 12.429688 -1.320312 11.765625 -0.59375 C 11.109375 0.132812 10.113281 0.5 8.78125 0.5 Z M 8.78125 0.5 "/></g></g></g><g fill="#ffffff" fill-opacity="1"><g transform="translate(87.484834, 76.84723)"><g><path d="M 8.53125 0.5 C 7.332031 0.5 6.410156 0.164062 5.765625 -0.5 C 5.117188 -1.164062 4.796875 -2.117188 4.796875 -3.359375 L 4.796875 -40.4375 C 4.796875 -41.71875 5.117188 -42.703125 5.765625 -43.390625 C 6.410156 -44.078125 7.25 -44.421875 8.28125 -44.421875 C 9.238281 -44.421875 9.957031 -44.242188 10.4375 -43.890625 C 10.914062 -43.535156 11.484375 -42.941406 12.140625 -42.109375 L 36 -11.15625 L 34.390625 -11.15625 L 34.390625 -40.625 C 34.390625 -41.820312 34.707031 -42.753906 35.34375 -43.421875 C 35.988281 -44.085938 36.914062 -44.421875 38.125 -44.421875 C 39.332031 -44.421875 40.242188 -44.085938 40.859375 -43.421875 C 41.484375 -42.753906 41.796875 -41.820312 41.796875 -40.625 L 41.796875 -3.234375 C 41.796875 -2.078125 41.503906 -1.164062 40.921875 -0.5 C 40.347656 0.164062 39.5625 0.5 38.5625 0.5 C 37.601562 0.5 36.84375 0.3125 36.28125 -0.0625 C 35.726562 -0.4375 35.117188 -1.039062 34.453125 -1.875 L 10.65625 -32.828125 L 12.203125 -32.828125 L 12.203125 -3.359375 C 12.203125 -2.117188 11.890625 -1.164062 11.265625 -0.5 C 10.648438 0.164062 9.738281 0.5 8.53125 0.5 Z M 8.53125 0.5 "/></g></g></g><g fill="#ffffff" fill-opacity="1"><g transform="translate(134.080206, 76.84723)"><g><path d="M 9.03125 0 C 7.664062 0 6.617188 -0.363281 5.890625 -1.09375 C 5.160156 -1.820312 4.796875 -2.867188 4.796875 -4.234375 L 4.796875 -39.6875 C 4.796875 -41.050781 5.160156 -42.097656 5.890625 -42.828125 C 6.617188 -43.554688 7.664062 -43.921875 9.03125 -43.921875 L 31.265625 -43.921875 C 32.304688 -43.921875 33.109375 -43.648438 33.671875 -43.109375 C 34.234375 -42.566406 34.515625 -41.796875 34.515625 -40.796875 C 34.515625 -39.765625 34.234375 -38.96875 33.671875 -38.40625 C 33.109375 -37.84375 32.304688 -37.5625 31.265625 -37.5625 L 12.453125 -37.5625 L 12.453125 -25.484375 L 29.90625 -25.484375 C 30.976562 -25.484375 31.785156 -25.210938 32.328125 -24.671875 C 32.867188 -24.128906 33.140625 -23.335938 33.140625 -22.296875 C 33.140625 -21.265625 32.867188 -20.476562 32.328125 -19.9375 C 31.785156 -19.394531 30.976562 -19.125 29.90625 -19.125 L 12.453125 -19.125 L 12.453125 -6.359375 L 31.265625 -6.359375 C 32.304688 -6.359375 33.109375 -6.085938 33.671875 -5.546875 C 34.234375 -5.003906 34.515625 -4.210938 34.515625 -3.171875 C 34.515625 -2.140625 34.234375 -1.351562 33.671875 -0.8125 C 33.109375 -0.269531 32.304688 0 31.265625 0 Z M 9.03125 0 "/></g></g></g><g fill="#d32025" fill-opacity="1"><g transform="translate(181.12075, 78.672719)"><g><path d="M 9.25 0.515625 C 7.914062 0.515625 6.867188 0.140625 6.109375 -0.609375 C 5.359375 -1.367188 4.984375 -2.460938 4.984375 -3.890625 L 4.984375 -41.234375 C 4.984375 -42.660156 5.359375 -43.75 6.109375 -44.5 C 6.867188 -45.257812 7.960938 -45.640625 9.390625 -45.640625 L 31.984375 -45.640625 C 33.097656 -45.640625 33.9375 -45.359375 34.5 -44.796875 C 35.0625 -44.234375 35.34375 -43.4375 35.34375 -42.40625 C 35.34375 -41.320312 35.0625 -40.488281 34.5 -39.90625 C 33.9375 -39.320312 33.097656 -39.03125 31.984375 -39.03125 L 13.265625 -39.03125 L 13.265625 -26.15625 L 30.625 -26.15625 C 31.695312 -26.15625 32.523438 -25.875 33.109375 -25.3125 C 33.691406 -24.75 33.984375 -23.953125 33.984375 -22.921875 C 33.984375 -21.835938 33.691406 -21.003906 33.109375 -20.421875 C 32.523438 -19.835938 31.695312 -19.546875 30.625 -19.546875 L 13.265625 -19.546875 L 13.265625 -3.890625 C 13.265625 -0.953125 11.925781 0.515625 9.25 0.515625 Z M 9.25 0.515625 "/></g></g></g><g fill="#d32025" fill-opacity="1"><g transform="translate(217.493642, 78.672719)"><g><path d="M 20 0.515625 C 18.664062 0.515625 17.640625 0.140625 16.921875 -0.609375 C 16.210938 -1.367188 15.859375 -2.4375 15.859375 -3.8125 L 15.859375 -23.5 L 17.609375 -18.515625 L 2 -40.453125 C 1.445312 -41.234375 1.203125 -42.066406 1.265625 -42.953125 C 1.328125 -43.835938 1.679688 -44.59375 2.328125 -45.21875 C 2.972656 -45.84375 3.878906 -46.15625 5.046875 -46.15625 C 5.910156 -46.15625 6.695312 -45.9375 7.40625 -45.5 C 8.125 -45.070312 8.804688 -44.40625 9.453125 -43.5 L 21.03125 -27.0625 L 19.21875 -27.0625 L 30.875 -43.5 C 31.570312 -44.445312 32.242188 -45.125 32.890625 -45.53125 C 33.535156 -45.945312 34.332031 -46.15625 35.28125 -46.15625 C 36.40625 -46.15625 37.28125 -45.863281 37.90625 -45.28125 C 38.53125 -44.695312 38.851562 -43.972656 38.875 -43.109375 C 38.894531 -42.242188 38.582031 -41.335938 37.9375 -40.390625 L 22.46875 -18.515625 L 24.140625 -23.5 L 24.140625 -3.8125 C 24.140625 -0.925781 22.757812 0.515625 20 0.515625 Z M 20 0.515625 "/></g></g></g></svg>